PathFileType	4	(X/Y/Z)	/Users/itak/Documents/Research/Walk-IL/dataset/trc/00335_00011.trc
DataRate	CameraRate	NumFrames	NumMarkers	Units	OrigDataRate	OrigDataStartFrame	OrigNumFrames
100.000000	100.000000	4	55	mm	100.000000	67	537
Frame#	Time	RPSI			LPSI			L3			STRN			T10			C7			CLAV			RBAK			LBAK			LSHO			LUPA			LAEL			LAOL			LWTS			LWPS			LFRA			LIFD			LHPS			LHTS			RSHO			RUPA			RAEL			RAOL			RWTS			RWPS			RFRA			RIFD			RHTS			RHPS			RBHD			LFHD			RFHD			LBHD			LHIP			RHIP			RASI			LASI			LKNE			LTHI			LANK			LTIP			LTOE			LMT5			LHEE			RKNE			RTHI			RANK			RTIP			RTOE			RMT1			RMT5			RHEE			LMT1			*53			*54			
		X1	Y1	Z1	X2	Y2	Z2	X3	Y3	Z3	X4	Y4	Z4	X5	Y5	Z5	X6	Y6	Z6	X7	Y7	Z7	X8	Y8	Z8	X9	Y9	Z9	X10	Y10	Z10	X11	Y11	Z11	X12	Y12	Z12	X13	Y13	Z13	X14	Y14	Z14	X15	Y15	Z15	X16	Y16	Z16	X17	Y17	Z17	X18	Y18	Z18	X19	Y19	Z19	X20	Y20	Z20	X21	Y21	Z21	X22	Y22	Z22	X23	Y23	Z23	X24	Y24	Z24	X25	Y25	Z25	X26	Y26	Z26	X27	Y27	Z27	X28	Y28	Z28	X29	Y29	Z29	X30	Y30	Z30	X31	Y31	Z31	X32	Y32	Z32	X33	Y33	Z33	X34	Y34	Z34	X35	Y35	Z35	X36	Y36	Z36	X37	Y37	Z37	X38	Y38	Z38	X39	Y39	Z39	X40	Y40	Z40	X41	Y41	Z41	X42	Y42	Z42	X43	Y43	Z43	X44	Y44	Z44	X45	Y45	Z45	X46	Y46	Z46	X47	Y47	Z47	X48	Y48	Z48	X49	Y49	Z49	X50	Y50	Z50	X51	Y51	Z51	X52	Y52	Z52	X53	Y53	Z53	X54	Y54	Z54	X55	Y55	Z55	

68	0.67	883.9280395507812	973.31103515625	173.8837890625	881.7507934570312	973.8444213867188	45.90655136108398	881.8643188476562	1023.662963867188	114.8406143188477	1100.284545898438	1216.600952148438	93.63713836669922	862.5652465820312	1142.850708007812	106.5562438964844	891.99560546875	1392.290283203125	85.07069396972656	1051.72119140625	1340.149291992188	88.17720031738281	851.8890380859375	1254.022705078125	157.4688720703125	883.3394165039062	1352.240844726562	-16.03999137878418	967.5655517578125	1371.810668945312	-73.94145965576172	957.1414184570312	1249.480590820312	-139.1179046630859	988.7906494140625	1045.449462890625	-141.1780242919922	923.8633422851562	1031.950317382812	-87.78765106201172	1091.888305664062	808.48095703125	-77.63857269287109	1058.477905273438	794.1968994140625	-136.2453765869141	1010.259704589844	942.1136474609375	-141.8969879150391	1100.701782226562	648.0989990234375	-66.96367645263672	1057.516479492188	724.0272216796875	-128.3226470947266	1107.668701171875	729.8546752929688	-89.08049774169922	956.928955078125	1383.649780273438	247.0349578857422	949.2813720703125	1319.73095703125	312.5512390136719	969.3408203125	1051.347534179688	345.9205932617188	921.7431030273438	1043.165893554688	266.3137512207031	1078.302490234375	826.5194702148438	283.2703247070312	1052.6025390625	809.8345947265625	354.1169738769531	998.8248901367188	984.8751220703125	351.7332763671875	1098.131713867188	651.72998046875	291.6763000488281	1110.079467773438	724.5040893554688	293.1185913085938	1069.528564453125	726.8018798828125	349.8151245117188	920.5079345703125	1595.131713867188	164.5184173583984	1087.41357421875	1623.320922851562	42.92270660400391	1078.926635742188	1623.975830078125	143.8041839599609	905.4762573242188	1586.838745117188	20.67259979248047	964.2255249023438	914.0642700195312	-59.76346588134766	965.674072265625	915.6630249023438	280.6365356445312	1069.372802734375	943.9320068359375	236.3639373779297	1086.32421875	938.8846435546875	-4.24335765838623	985.622802734375	453.7599182128906	-41.22767639160156	994.521484375	593.8627319335938	-53.17243194580078	898.6619262695312	39.18432998657227	-20.4902515411377	939.2525024414062	240.2927703857422	-43.44787216186523	1105.426147460938	31.90620613098145	37.02259063720703	1024.303955078125	34.50366592407227	-34.72972869873047	865.0662841796875	33.23546600341797	46.67699432373047	970.0233154296875	453.4891357421875	255.8985900878906	1038.19384765625	710.9818115234375	278.4105224609375	903.3964233398438	43.96075820922852	228.5117034912109	968.5587768554688	336.61767578125	249.1469879150391	1096.878784179688	32.2799072265625	182.74267578125	1041.938720703125	30.38359832763672	140.8608703613281	1002.535949707031	28.66410827636719	252.3224487304688	852.4080200195312	43.5676383972168	180.8722076416016	1035.71923828125	19.72517013549805	77.52724456787109	nan	nan	nan	nan	nan	nan	
69	0.68	883.8447265625	973.3201293945312	173.7874145507812	881.4876708984375	973.8619384765625	45.76500701904297	881.7466430664062	1023.66357421875	114.7490539550781	1100.104248046875	1216.6279296875	93.61720275878906	862.4505004882812	1142.8388671875	106.4436492919922	891.814697265625	1392.289184570312	85.01327514648438	1051.576171875	1340.129516601562	88.19669342041016	851.6998901367188	1254.01708984375	157.3236999511719	883.2607421875	1352.273071289062	-16.12636184692383	967.4700317382812	1371.866577148438	-73.99449157714844	957.1182861328125	1249.520141601562	-139.2098846435547	988.8392333984375	1045.50341796875	-141.2391204833984	923.9050903320312	1031.959106445312	-87.93338012695312	1092.05419921875	808.5839233398438	-77.61878967285156	1058.690063476562	794.3404541015625	-136.2819976806641	1010.403869628906	942.1784057617188	-141.9748077392578	1101.006591796875	648.3466796875	-67.06539154052734	1057.707275390625	724.1200561523438	-128.3546905517578	1107.853759765625	729.9472045898438	-89.03292083740234	956.6332397460938	1383.62158203125	246.9037170410156	949.1381225585938	1319.742797851562	312.5555725097656	969.1822509765625	1051.378051757812	345.9065246582031	921.677734375	1043.173217773438	266.2751159667969	1078.214599609375	826.55322265625	283.2626342773438	1052.44873046875	809.8428344726562	354.0866394042969	998.6943969726562	984.7935180664062	351.5724182128906	1098.184814453125	651.8810424804688	291.6896667480469	1109.995849609375	724.5708618164062	293.11865234375	1069.463989257812	726.8356323242188	349.8013000488281	920.3355712890625	1595.14453125	164.4907379150391	1087.25146484375	1623.397216796875	42.82735061645508	1078.691772460938	1623.992919921875	143.7488403320312	905.316162109375	1586.823852539062	20.62077331542969	964.1414184570312	914.0678100585938	-59.84914016723633	965.5786743164062	915.65966796875	280.5696105957031	1069.283203125	943.9268188476562	236.2895965576172	1086.238403320312	938.8563842773438	-4.270646095275879	985.5671997070312	453.763671875	-41.26235198974609	994.4208374023438	593.8497924804688	-53.17811965942383	898.6635131835938	39.18433380126953	-20.49258041381836	939.2271728515625	240.2839660644531	-43.4711799621582	1105.425659179688	31.90768814086914	37.02048873901367	1024.303344726562	34.50565719604492	-34.72742462158203	865.0629272460938	33.22781372070312	46.6851692199707	970.0099487304688	453.4850463867188	255.8745880126953	1038.354858398438	711.0011596679688	278.3096008300781	903.3949584960938	43.96181106567383	228.4833679199219	968.5615234375	336.6083984375	249.1154174804688	1096.877319335938	32.27936935424805	182.7428894042969	1041.938842773438	30.38327789306641	140.8595275878906	1002.539855957031	28.66873931884766	252.3164978027344	852.4097900390625	43.57012557983398	180.8667907714844	1035.7177734375	19.72559547424316	77.52735900878906	nan	nan	nan	nan	nan	nan	
70	0.6900000000000001	883.76513671875	973.317138671875	173.6964416503906	881.223876953125	973.8759765625	45.62352752685547	881.6309814453125	1023.652526855469	114.6629180908203	1099.919921875	1216.650268554688	93.60729217529297	862.30126953125	1142.835083007812	106.3173217773438	891.626220703125	1392.282836914062	84.94725036621094	1051.40380859375	1340.099731445312	88.22758483886719	851.4967651367188	1254.004150390625	157.1638793945312	883.155517578125	1352.301025390625	-16.21736907958984	967.362548828125	1371.915283203125	-74.04615783691406	957.0752563476562	1249.556274414062	-139.3005065917969	988.872314453125	1045.552001953125	-141.3077239990234	923.9442749023438	1031.9716796875	-88.08083343505859	1092.193237304688	808.666015625	-77.63894653320312	1058.873291015625	794.4779663085938	-136.3667907714844	1010.527770996094	942.2390747070312	-142.0596618652344	1101.306030273438	648.5690307617188	-67.21711730957031	1057.864868164062	724.1995239257812	-128.4220275878906	1108.021484375	730.0415649414062	-89.04016876220703	956.3509521484375	1383.585083007812	246.7779846191406	949.0338745117188	1319.7607421875	312.6029052734375	969.0157470703125	1051.397705078125	345.8984680175781	921.5816040039062	1043.18359375	266.2232666015625	1078.108276367188	826.5686645507812	283.2522277832031	1052.27783203125	809.8336791992188	354.0451049804688	998.5408935546875	984.6963500976562	351.3973388671875	1098.216430664062	652.0291748046875	291.6959228515625	1109.913452148438	724.6396484375	293.1060791015625	1069.373657226562	726.8689575195312	349.7666320800781	920.1474609375	1595.158081054688	164.4610443115234	1087.0703125	1623.458251953125	42.73478698730469	1078.444702148438	1624	143.6943206787109	905.13037109375	1586.808227539062	20.56684684753418	964.1092529296875	914.0698852539062	-59.91891479492188	965.470458984375	915.6602783203125	280.5046691894531	1069.190185546875	943.9195556640625	236.2218780517578	1086.1513671875	938.8339233398438	-4.299664974212646	985.5115966796875	453.7687683105469	-41.29372024536133	994.26171875	593.823974609375	-53.17516708374023	898.6644287109375	39.18364334106445	-20.49428749084473	939.201171875	240.2779541015625	-43.49438858032227	1105.425048828125	31.90987586975098	37.01802062988281	1024.300903320312	34.50840377807617	-34.72530746459961	865.0585327148438	33.21823501586914	46.69258117675781	969.9896850585938	453.47607421875	255.8469543457031	1038.503173828125	711.0245971679688	278.2106323242188	903.396728515625	43.96305465698242	228.447509765625	968.5617065429688	336.5968322753906	249.0857543945312	1096.875366210938	32.2783203125	182.741943359375	1041.939819335938	30.3841381072998	140.8563995361328	1002.54345703125	28.67090034484863	252.3108062744141	852.4098510742188	43.57100296020508	180.8626861572266	1035.715087890625	19.72370719909668	77.5291748046875	nan	nan	nan	nan	nan	nan	
71	0.7000000000000001	883.6907348632812	973.3019409179688	173.6107482910156	880.9656982421875	973.8850708007812	45.4837760925293	881.5173950195312	1023.631591796875	114.5816268920898	1099.738525390625	1216.669555664062	93.60269927978516	862.1132202148438	1142.838623046875	106.1750793457031	891.4320068359375	1392.26904296875	84.8701171875	1051.205078125	1340.0625	88.26663208007812	851.283447265625	1253.983642578125	156.9922027587891	883.0213623046875	1352.322875976562	-16.31304359436035	967.2437744140625	1371.9541015625	-74.09662628173828	957.013427734375	1249.589111328125	-139.3905487060547	988.8916015625	1045.594970703125	-141.3859710693359	923.979736328125	1031.987426757812	-88.23116302490234	1092.301513671875	808.722412109375	-77.69643402099609	1059.020751953125	794.6019287109375	-136.4978942871094	1010.627868652344	942.2935791015625	-142.1499481201172	1101.586669921875	648.7489624023438	-67.40348052978516	1057.994140625	724.2675170898438	-128.5267333984375	1108.169311523438	730.140625	-89.10726928710938	956.0917358398438	1383.544799804688	246.6699371337891	948.9674072265625	1319.7890625	312.6916809082031	968.8463134765625	1051.40380859375	345.8906555175781	921.4380493164062	1043.196533203125	266.1502075195312	1077.982421875	826.56298828125	283.2384948730469	1052.095336914062	809.8146362304688	353.9886169433594	998.362548828125	984.5970458984375	351.2269897460938	1098.208251953125	652.1600952148438	291.689697265625	1109.834106445312	724.710205078125	293.0819396972656	1069.254638671875	726.896728515625	349.7062072753906	919.9398803710938	1595.169799804688	164.4263153076172	1086.8681640625	1623.502807617188	42.65130996704102	1078.185546875	1623.997314453125	143.6469268798828	904.9182739257812	1586.791381835938	20.50877952575684	964.1595458984375	914.0675659179688	-59.96389389038086	965.3569946289062	915.6650390625	280.4462280273438	1069.0927734375	943.9104614257812	236.1578369140625	1086.062255859375	938.8164672851562	-4.329544067382812	985.4556274414062	453.7738952636719	-41.32085037231445	994.031494140625	593.7792358398438	-53.16424179077148	898.6641845703125	39.1824951171875	-20.49533653259277	939.1744384765625	240.2747497558594	-43.51744079589844	1105.423461914062	31.9118595123291	37.01572799682617	1024.297241210938	34.5115966796875	-34.72369003295898	865.0534057617188	33.20768356323242	46.6971321105957	969.9606323242188	453.4601135253906	255.8134918212891	1038.646118164062	711.0521240234375	278.1181640625	903.4021606445312	43.96498107910156	228.4088134765625	968.5598754882812	336.5835571289062	249.0576629638672	1096.873291015625	32.27717971801758	182.7399444580078	1041.9423828125	30.38737487792969	140.852294921875	1002.546203613281	28.67218017578125	252.3052673339844	852.4085693359375	43.57052612304688	180.859375	1035.711791992188	19.72006607055664	77.53228759765625	nan	nan	nan	nan	nan	nan	
